<svg id="svg" xmlns="http://www.w3.org/2000/svg" xmlns:xlink="http://www.w3.org/1999/xlink" width="400" height="400" viewBox="0, 0, 400,400"><g id="svgg"><path id="path0" d="M190.857 35.641 C 163.681 37.176,137.313 45.374,114.381 59.415 L 111.714 61.048 155.857 61.096 C 180.136 61.122,219.864 61.122,244.143 61.096 L 288.286 61.048 285.619 59.415 C 257.485 42.188,223.937 33.771,190.857 35.641 M298.336 91.764 L 289.740 108.667 271.977 108.715 L 254.213 108.764 256.488 110.155 C 319.850 148.900,327.024 238.530,270.580 286.202 L 268.113 288.286 280.119 288.335 L 292.125 288.384 300.906 305.378 C 305.735 314.724,309.771 322.400,309.875 322.434 C 309.978 322.469,312.260 320.334,314.946 317.691 C 384.174 249.560,380.709 139.346,307.323 75.203 C 306.934 74.862,306.879 74.963,298.336 91.764 M86.749 80.617 C 22.538 142.086,17.912 242.105,76.211 308.470 C 80.070 312.862,90.046 322.859,90.568 322.856 C 90.674 322.855,94.705 315.099,99.524 305.620 L 108.286 288.386 120.086 288.336 L 131.887 288.286 129.420 286.202 C 72.974 238.529,80.149 148.910,143.514 110.154 L 145.790 108.762 125.868 108.762 L 105.946 108.762 98.005 93.381 C 93.637 84.921,90.001 77.935,89.925 77.855 C 89.848 77.775,88.420 79.018,86.749 80.617 M193.810 134.500 C 137.873 139.802,111.210 205.821,147.810 248.399 C 182.427 288.671,248.409 275.714,265.400 225.309 C 281.251 178.287,243.051 129.832,193.810 134.500 M107.533 336.165 C 107.872 336.473,110.565 338.229,113.333 339.947 C 166.266 372.803,233.734 372.803,286.667 339.947 C 289.435 338.229,292.128 336.473,292.467 336.165 C 292.568 336.072,252.027 336.000,200.000 336.000 C 147.973 336.000,107.432 336.072,107.533 336.165 " stroke="none" fill="#dbf3db" fill-rule="evenodd"></path><path id="path1" d="M190.000 0.121 C 118.068 4.473,56.739 43.492,23.131 106.286 C 2.719 144.426,-4.578 189.773,2.680 233.375 C 16.605 317.014,82.986 383.395,166.625 397.320 C 190.914 401.363,216.406 400.904,240.518 395.990 C 320.943 379.597,383.835 314.373,397.320 233.375 C 400.294 215.509,400.846 195.352,398.848 177.524 C 388.473 84.908,315.023 11.459,222.476 1.155 C 214.635 0.282,212.047 0.152,201.429 0.101 C 195.771 0.074,190.629 0.083,190.000 0.121 M208.571 35.624 C 236.302 37.158,262.462 45.236,285.619 59.415 L 288.286 61.048 244.143 61.096 C 219.864 61.122,180.136 61.122,155.857 61.096 L 111.714 61.048 114.381 59.415 C 142.365 42.280,175.877 33.815,208.571 35.624 M310.476 78.041 C 377.594 138.697,383.001 242.329,322.570 309.824 C 319.479 313.276,310.163 322.530,309.875 322.434 C 309.771 322.400,305.735 314.724,300.906 305.378 L 292.125 288.384 280.119 288.335 L 268.113 288.286 270.580 286.202 C 327.024 238.530,319.850 148.900,256.488 110.155 L 254.213 108.764 271.977 108.715 L 289.740 108.667 298.336 91.764 C 306.879 74.963,306.934 74.862,307.323 75.203 C 307.538 75.391,308.957 76.668,310.476 78.041 M98.005 93.381 L 105.946 108.762 125.868 108.762 L 145.790 108.762 143.514 110.154 C 80.149 148.910,72.974 238.529,129.420 286.202 L 131.887 288.286 120.086 288.336 L 108.286 288.386 99.524 305.620 C 94.705 315.099,90.674 322.855,90.568 322.856 C 90.046 322.859,80.070 312.862,76.211 308.470 C 21.846 246.584,21.835 153.399,76.184 91.562 C 80.518 86.631,89.627 77.544,89.925 77.855 C 90.001 77.935,93.637 84.921,98.005 93.381 M205.810 134.478 C 262.043 139.642,288.924 205.666,252.190 248.399 C 215.997 290.505,146.624 274.021,133.072 220.095 C 121.575 174.345,159.089 130.189,205.810 134.478 M292.467 336.165 C 292.128 336.473,289.435 338.229,286.667 339.947 C 233.734 372.803,166.266 372.803,113.333 339.947 C 110.565 338.229,107.872 336.473,107.533 336.165 C 107.432 336.072,147.973 336.000,200.000 336.000 C 252.027 336.000,292.568 336.072,292.467 336.165 " stroke="none" fill="#04643c" fill-rule="evenodd"></path></g></svg>